<mxfile host="app.diagrams.net" modified="2023-03-25T04:18:49.529Z" agent="Mozilla/5.0 (Windows NT 10.0; Win64; x64) AppleWebKit/537.36 (KHTML, like Gecko) Chrome/111.0.0.0 Safari/537.36" etag="jv7GlWoPPr42lMfjVwT5" version="21.1.1" type="device">
  <diagram name="第 1 页" id="dVfCkkUMNiU2_hFv-WXL">
    <mxGraphModel dx="1723" dy="730" grid="0" gridSize="10" guides="1" tooltips="1" connect="1" arrows="1" fold="1" page="0" pageScale="1" pageWidth="827" pageHeight="1169" math="0" shadow="0">
      <root>
        <mxCell id="0" />
        <mxCell id="1" parent="0" />
        <mxCell id="jEuq8wLIyy8ZGfZIhx-s-3" style="edgeStyle=orthogonalEdgeStyle;rounded=0;orthogonalLoop=1;jettySize=auto;html=1;" parent="1" source="jEuq8wLIyy8ZGfZIhx-s-1" edge="1">
          <mxGeometry relative="1" as="geometry">
            <mxPoint x="354.00006103515625" y="152" as="targetPoint" />
          </mxGeometry>
        </mxCell>
        <mxCell id="jEuq8wLIyy8ZGfZIhx-s-1" value="文献法" style="rounded=0;whiteSpace=wrap;html=1;" parent="1" vertex="1">
          <mxGeometry x="89" y="122" width="120" height="60" as="geometry" />
        </mxCell>
        <mxCell id="LqyglAj0tmATDJTgA5KY-1" value="" style="edgeStyle=orthogonalEdgeStyle;rounded=0;orthogonalLoop=1;jettySize=auto;html=1;" edge="1" parent="1" source="jEuq8wLIyy8ZGfZIhx-s-2" target="jEuq8wLIyy8ZGfZIhx-s-14">
          <mxGeometry relative="1" as="geometry" />
        </mxCell>
        <mxCell id="jEuq8wLIyy8ZGfZIhx-s-2" value="绪论" style="rounded=0;whiteSpace=wrap;html=1;" parent="1" vertex="1">
          <mxGeometry x="354" y="124" width="120" height="60" as="geometry" />
        </mxCell>
        <mxCell id="jEuq8wLIyy8ZGfZIhx-s-4" value="国内外研究现状" style="rounded=0;whiteSpace=wrap;html=1;" parent="1" vertex="1">
          <mxGeometry x="538" y="166" width="120" height="29" as="geometry" />
        </mxCell>
        <mxCell id="jEuq8wLIyy8ZGfZIhx-s-5" value="研究的目的和意义" style="rounded=0;whiteSpace=wrap;html=1;" parent="1" vertex="1">
          <mxGeometry x="538" y="96" width="120" height="35" as="geometry" />
        </mxCell>
        <mxCell id="jEuq8wLIyy8ZGfZIhx-s-9" value="" style="endArrow=none;html=1;rounded=0;exitX=1;exitY=0.5;exitDx=0;exitDy=0;" parent="1" edge="1">
          <mxGeometry width="50" height="50" relative="1" as="geometry">
            <mxPoint x="474" y="153" as="sourcePoint" />
            <mxPoint x="511" y="153" as="targetPoint" />
          </mxGeometry>
        </mxCell>
        <mxCell id="jEuq8wLIyy8ZGfZIhx-s-10" value="" style="endArrow=none;html=1;rounded=0;" parent="1" edge="1">
          <mxGeometry width="50" height="50" relative="1" as="geometry">
            <mxPoint x="512" y="181" as="sourcePoint" />
            <mxPoint x="512" y="114" as="targetPoint" />
          </mxGeometry>
        </mxCell>
        <mxCell id="jEuq8wLIyy8ZGfZIhx-s-15" value="" style="edgeStyle=orthogonalEdgeStyle;rounded=0;orthogonalLoop=1;jettySize=auto;html=1;" parent="1" source="jEuq8wLIyy8ZGfZIhx-s-13" target="jEuq8wLIyy8ZGfZIhx-s-14" edge="1">
          <mxGeometry relative="1" as="geometry" />
        </mxCell>
        <mxCell id="jEuq8wLIyy8ZGfZIhx-s-13" value="结构化系统分析法" style="rounded=0;whiteSpace=wrap;html=1;" parent="1" vertex="1">
          <mxGeometry x="89" y="267" width="120" height="60" as="geometry" />
        </mxCell>
        <mxCell id="LqyglAj0tmATDJTgA5KY-2" value="" style="edgeStyle=orthogonalEdgeStyle;rounded=0;orthogonalLoop=1;jettySize=auto;html=1;" edge="1" parent="1" source="jEuq8wLIyy8ZGfZIhx-s-14" target="jEuq8wLIyy8ZGfZIhx-s-29">
          <mxGeometry relative="1" as="geometry" />
        </mxCell>
        <mxCell id="jEuq8wLIyy8ZGfZIhx-s-14" value="系统分析" style="whiteSpace=wrap;html=1;rounded=0;" parent="1" vertex="1">
          <mxGeometry x="354" y="267" width="120" height="60" as="geometry" />
        </mxCell>
        <mxCell id="jEuq8wLIyy8ZGfZIhx-s-16" value="" style="endArrow=none;html=1;rounded=0;exitX=0;exitY=0.5;exitDx=0;exitDy=0;" parent="1" source="jEuq8wLIyy8ZGfZIhx-s-4" edge="1">
          <mxGeometry width="50" height="50" relative="1" as="geometry">
            <mxPoint x="539" y="184" as="sourcePoint" />
            <mxPoint x="512" y="181" as="targetPoint" />
          </mxGeometry>
        </mxCell>
        <mxCell id="jEuq8wLIyy8ZGfZIhx-s-17" value="" style="endArrow=none;html=1;rounded=0;entryX=0;entryY=0.5;entryDx=0;entryDy=0;" parent="1" target="jEuq8wLIyy8ZGfZIhx-s-5" edge="1">
          <mxGeometry width="50" height="50" relative="1" as="geometry">
            <mxPoint x="512" y="114" as="sourcePoint" />
            <mxPoint x="589" y="134" as="targetPoint" />
          </mxGeometry>
        </mxCell>
        <mxCell id="jEuq8wLIyy8ZGfZIhx-s-19" value="" style="endArrow=none;html=1;rounded=0;exitX=1;exitY=0.5;exitDx=0;exitDy=0;" parent="1" source="jEuq8wLIyy8ZGfZIhx-s-14" edge="1">
          <mxGeometry width="50" height="50" relative="1" as="geometry">
            <mxPoint x="539" y="299" as="sourcePoint" />
            <mxPoint x="510" y="297" as="targetPoint" />
          </mxGeometry>
        </mxCell>
        <mxCell id="jEuq8wLIyy8ZGfZIhx-s-21" value="功能需求分析" style="rounded=0;whiteSpace=wrap;html=1;" parent="1" vertex="1">
          <mxGeometry x="538" y="221" width="120" height="29" as="geometry" />
        </mxCell>
        <mxCell id="jEuq8wLIyy8ZGfZIhx-s-22" value="可行性分析" style="rounded=0;whiteSpace=wrap;html=1;" parent="1" vertex="1">
          <mxGeometry x="538" y="270" width="120" height="29" as="geometry" />
        </mxCell>
        <mxCell id="jEuq8wLIyy8ZGfZIhx-s-23" value="业务流程分析" style="rounded=0;whiteSpace=wrap;html=1;" parent="1" vertex="1">
          <mxGeometry x="538" y="322" width="120" height="29" as="geometry" />
        </mxCell>
        <mxCell id="jEuq8wLIyy8ZGfZIhx-s-24" value="" style="endArrow=none;html=1;rounded=0;" parent="1" edge="1">
          <mxGeometry width="50" height="50" relative="1" as="geometry">
            <mxPoint x="510" y="380" as="sourcePoint" />
            <mxPoint x="510" y="234" as="targetPoint" />
          </mxGeometry>
        </mxCell>
        <mxCell id="jEuq8wLIyy8ZGfZIhx-s-25" value="" style="endArrow=none;html=1;rounded=0;entryX=0;entryY=0.5;entryDx=0;entryDy=0;" parent="1" target="jEuq8wLIyy8ZGfZIhx-s-21" edge="1">
          <mxGeometry width="50" height="50" relative="1" as="geometry">
            <mxPoint x="509" y="236" as="sourcePoint" />
            <mxPoint x="538" y="243" as="targetPoint" />
          </mxGeometry>
        </mxCell>
        <mxCell id="jEuq8wLIyy8ZGfZIhx-s-27" value="" style="endArrow=none;html=1;rounded=0;exitX=0;exitY=0.5;exitDx=0;exitDy=0;" parent="1" source="jEuq8wLIyy8ZGfZIhx-s-23" edge="1">
          <mxGeometry width="50" height="50" relative="1" as="geometry">
            <mxPoint x="461" y="386" as="sourcePoint" />
            <mxPoint x="511" y="336" as="targetPoint" />
          </mxGeometry>
        </mxCell>
        <mxCell id="jEuq8wLIyy8ZGfZIhx-s-30" value="" style="edgeStyle=orthogonalEdgeStyle;rounded=0;orthogonalLoop=1;jettySize=auto;html=1;" parent="1" source="jEuq8wLIyy8ZGfZIhx-s-28" target="jEuq8wLIyy8ZGfZIhx-s-29" edge="1">
          <mxGeometry relative="1" as="geometry" />
        </mxCell>
        <mxCell id="jEuq8wLIyy8ZGfZIhx-s-28" value="结构化系统设计法" style="rounded=0;whiteSpace=wrap;html=1;" parent="1" vertex="1">
          <mxGeometry x="89" y="452" width="120" height="60" as="geometry" />
        </mxCell>
        <mxCell id="LqyglAj0tmATDJTgA5KY-3" value="" style="edgeStyle=orthogonalEdgeStyle;rounded=0;orthogonalLoop=1;jettySize=auto;html=1;" edge="1" parent="1" source="jEuq8wLIyy8ZGfZIhx-s-29" target="jEuq8wLIyy8ZGfZIhx-s-39">
          <mxGeometry relative="1" as="geometry" />
        </mxCell>
        <mxCell id="jEuq8wLIyy8ZGfZIhx-s-29" value="系统设计" style="whiteSpace=wrap;html=1;rounded=0;" parent="1" vertex="1">
          <mxGeometry x="354" y="452" width="120" height="60" as="geometry" />
        </mxCell>
        <mxCell id="jEuq8wLIyy8ZGfZIhx-s-31" value="功能模块设计" style="rounded=0;whiteSpace=wrap;html=1;" parent="1" vertex="1">
          <mxGeometry x="538" y="418" width="120" height="29" as="geometry" />
        </mxCell>
        <mxCell id="jEuq8wLIyy8ZGfZIhx-s-32" value="数据库设计" style="rounded=0;whiteSpace=wrap;html=1;" parent="1" vertex="1">
          <mxGeometry x="538" y="467" width="120" height="29" as="geometry" />
        </mxCell>
        <mxCell id="jEuq8wLIyy8ZGfZIhx-s-33" value="代码设计" style="rounded=0;whiteSpace=wrap;html=1;" parent="1" vertex="1">
          <mxGeometry x="538" y="519" width="120" height="29" as="geometry" />
        </mxCell>
        <mxCell id="jEuq8wLIyy8ZGfZIhx-s-34" value="" style="endArrow=none;html=1;rounded=0;" parent="1" edge="1">
          <mxGeometry width="50" height="50" relative="1" as="geometry">
            <mxPoint x="511" y="570" as="sourcePoint" />
            <mxPoint x="511" y="431" as="targetPoint" />
          </mxGeometry>
        </mxCell>
        <mxCell id="jEuq8wLIyy8ZGfZIhx-s-35" value="" style="endArrow=none;html=1;rounded=0;entryX=0;entryY=0.5;entryDx=0;entryDy=0;" parent="1" target="jEuq8wLIyy8ZGfZIhx-s-31" edge="1">
          <mxGeometry width="50" height="50" relative="1" as="geometry">
            <mxPoint x="510" y="433" as="sourcePoint" />
            <mxPoint x="539" y="440" as="targetPoint" />
          </mxGeometry>
        </mxCell>
        <mxCell id="jEuq8wLIyy8ZGfZIhx-s-36" value="" style="endArrow=none;html=1;rounded=0;exitX=0;exitY=0.5;exitDx=0;exitDy=0;" parent="1" source="jEuq8wLIyy8ZGfZIhx-s-33" edge="1">
          <mxGeometry width="50" height="50" relative="1" as="geometry">
            <mxPoint x="462" y="583" as="sourcePoint" />
            <mxPoint x="512" y="533" as="targetPoint" />
          </mxGeometry>
        </mxCell>
        <mxCell id="jEuq8wLIyy8ZGfZIhx-s-37" value="" style="endArrow=none;html=1;rounded=0;exitX=1;exitY=0.5;exitDx=0;exitDy=0;" parent="1" source="jEuq8wLIyy8ZGfZIhx-s-29" edge="1">
          <mxGeometry width="50" height="50" relative="1" as="geometry">
            <mxPoint x="489" y="531" as="sourcePoint" />
            <mxPoint x="539" y="481" as="targetPoint" />
          </mxGeometry>
        </mxCell>
        <mxCell id="jEuq8wLIyy8ZGfZIhx-s-40" value="" style="edgeStyle=orthogonalEdgeStyle;rounded=0;orthogonalLoop=1;jettySize=auto;html=1;" parent="1" source="jEuq8wLIyy8ZGfZIhx-s-38" target="jEuq8wLIyy8ZGfZIhx-s-39" edge="1">
          <mxGeometry relative="1" as="geometry" />
        </mxCell>
        <mxCell id="jEuq8wLIyy8ZGfZIhx-s-38" value="软件开发法" style="rounded=0;whiteSpace=wrap;html=1;" parent="1" vertex="1">
          <mxGeometry x="89" y="631" width="120" height="60" as="geometry" />
        </mxCell>
        <mxCell id="jEuq8wLIyy8ZGfZIhx-s-39" value="系统实现" style="whiteSpace=wrap;html=1;rounded=0;" parent="1" vertex="1">
          <mxGeometry x="354" y="631" width="120" height="60" as="geometry" />
        </mxCell>
        <mxCell id="jEuq8wLIyy8ZGfZIhx-s-46" value="功能模块的测试" style="rounded=0;whiteSpace=wrap;html=1;" parent="1" vertex="1">
          <mxGeometry x="538" y="681.5" width="120" height="29" as="geometry" />
        </mxCell>
        <mxCell id="jEuq8wLIyy8ZGfZIhx-s-47" value="功能模块的实现" style="rounded=0;whiteSpace=wrap;html=1;" parent="1" vertex="1">
          <mxGeometry x="538" y="611.5" width="120" height="35" as="geometry" />
        </mxCell>
        <mxCell id="jEuq8wLIyy8ZGfZIhx-s-48" value="" style="endArrow=none;html=1;rounded=0;" parent="1" edge="1">
          <mxGeometry width="50" height="50" relative="1" as="geometry">
            <mxPoint x="512" y="696.5" as="sourcePoint" />
            <mxPoint x="512" y="629.5" as="targetPoint" />
          </mxGeometry>
        </mxCell>
        <mxCell id="jEuq8wLIyy8ZGfZIhx-s-49" value="" style="endArrow=none;html=1;rounded=0;exitX=0;exitY=0.5;exitDx=0;exitDy=0;" parent="1" source="jEuq8wLIyy8ZGfZIhx-s-46" edge="1">
          <mxGeometry width="50" height="50" relative="1" as="geometry">
            <mxPoint x="539" y="699.5" as="sourcePoint" />
            <mxPoint x="512" y="696.5" as="targetPoint" />
          </mxGeometry>
        </mxCell>
        <mxCell id="jEuq8wLIyy8ZGfZIhx-s-50" value="" style="endArrow=none;html=1;rounded=0;entryX=0;entryY=0.5;entryDx=0;entryDy=0;" parent="1" target="jEuq8wLIyy8ZGfZIhx-s-47" edge="1">
          <mxGeometry width="50" height="50" relative="1" as="geometry">
            <mxPoint x="512" y="629.5" as="sourcePoint" />
            <mxPoint x="589" y="649.5" as="targetPoint" />
          </mxGeometry>
        </mxCell>
        <mxCell id="jEuq8wLIyy8ZGfZIhx-s-51" value="" style="endArrow=none;html=1;rounded=0;exitX=1;exitY=0.5;exitDx=0;exitDy=0;" parent="1" source="jEuq8wLIyy8ZGfZIhx-s-39" edge="1">
          <mxGeometry width="50" height="50" relative="1" as="geometry">
            <mxPoint x="462" y="710.5" as="sourcePoint" />
            <mxPoint x="512" y="660.5" as="targetPoint" />
          </mxGeometry>
        </mxCell>
        <mxCell id="LqyglAj0tmATDJTgA5KY-4" value="数据流程分析" style="rounded=0;whiteSpace=wrap;html=1;" vertex="1" parent="1">
          <mxGeometry x="538" y="366" width="120" height="29" as="geometry" />
        </mxCell>
        <mxCell id="LqyglAj0tmATDJTgA5KY-5" value="" style="endArrow=none;html=1;rounded=0;entryX=0;entryY=0.5;entryDx=0;entryDy=0;" edge="1" parent="1" target="LqyglAj0tmATDJTgA5KY-4">
          <mxGeometry width="50" height="50" relative="1" as="geometry">
            <mxPoint x="508" y="380" as="sourcePoint" />
            <mxPoint x="592" y="352" as="targetPoint" />
          </mxGeometry>
        </mxCell>
        <mxCell id="LqyglAj0tmATDJTgA5KY-6" value="输入输出设计" style="rounded=0;whiteSpace=wrap;html=1;" vertex="1" parent="1">
          <mxGeometry x="538" y="556" width="120" height="29" as="geometry" />
        </mxCell>
        <mxCell id="LqyglAj0tmATDJTgA5KY-7" value="" style="endArrow=none;html=1;rounded=0;entryX=0;entryY=0.5;entryDx=0;entryDy=0;" edge="1" parent="1" target="jEuq8wLIyy8ZGfZIhx-s-22">
          <mxGeometry width="50" height="50" relative="1" as="geometry">
            <mxPoint x="512" y="285" as="sourcePoint" />
            <mxPoint x="592" y="323" as="targetPoint" />
            <Array as="points" />
          </mxGeometry>
        </mxCell>
        <mxCell id="LqyglAj0tmATDJTgA5KY-8" value="" style="endArrow=none;html=1;rounded=0;" edge="1" parent="1">
          <mxGeometry width="50" height="50" relative="1" as="geometry">
            <mxPoint x="513" y="572" as="sourcePoint" />
            <mxPoint x="539" y="572" as="targetPoint" />
          </mxGeometry>
        </mxCell>
      </root>
    </mxGraphModel>
  </diagram>
</mxfile>
